<?xml version="1.0" encoding="UTF-8"?>
<svg version="1.1" xmlns="http://www.w3.org/2000/svg" width="65" height="59">
<path d="M0 0 C1.97542842 1.5359409 3.17485445 2.99615143 4.578125 5.07421875 C5.23554687 6.04101562 5.89296875 7.0078125 6.5703125 8.00390625 C11.60391731 16.01458472 11.60391731 16.01458472 11.53125 19 C10.05570669 22.2111209 8.23246864 25.16927066 6.328125 28.13671875 C5.94527344 28.76126953 5.56242187 29.38582031 5.16796875 30.02929688 C2.78253003 33.76701607 0.8153026 36.36235044 -3.421875 38.07421875 C-9.71915391 38.87535187 -16.86417411 39.46562482 -22.87890625 37.11328125 C-24.83780623 35.58330519 -26.04089976 34.14370314 -27.421875 32.07421875 C-28.00582031 31.20410156 -28.58976562 30.33398438 -29.19140625 29.4375 C-33.46987532 22.35822725 -33.46987532 22.35822725 -33.3125 18.1484375 C-32.24891532 14.4772044 -30.68046341 11.63746053 -28.671875 8.38671875 C-27.99640625 7.26910156 -27.3209375 6.15148437 -26.625 5 C-20.80646594 -2.72709576 -8.76978507 -3.35232107 0 0 Z M-13.421875 4.07421875 C-15.01655515 6.51070032 -16.54557738 8.95615482 -18.046875 11.44921875 C-18.48 12.14789063 -18.913125 12.8465625 -19.359375 13.56640625 C-20.44523623 15.36464778 -21.440921 17.21666755 -22.421875 19.07421875 C-22.091875 19.73421875 -21.761875 20.39421875 -21.421875 21.07421875 C-19.333805 21.6869418 -19.333805 21.6869418 -16.921875 22.07421875 C-14.453125 22.51171875 -14.453125 22.51171875 -12.421875 23.07421875 C-11.27372503 25.37051869 -11.11417691 27.15119961 -10.859375 29.69921875 C-10.77558594 30.51648438 -10.69179688 31.33375 -10.60546875 32.17578125 C-10.54488281 32.80226563 -10.48429687 33.42875 -10.421875 34.07421875 C-6.40094079 29.45759058 -1.421875 23.40366362 -1.421875 17.07421875 C-2.05996094 16.94144531 -2.69804688 16.80867188 -3.35546875 16.671875 C-4.59490234 16.40697266 -4.59490234 16.40697266 -5.859375 16.13671875 C-6.68308594 15.96269531 -7.50679687 15.78867187 -8.35546875 15.609375 C-10.421875 15.07421875 -10.421875 15.07421875 -11.421875 14.07421875 C-11.65474508 12.39237927 -11.83451666 10.70297715 -11.984375 9.01171875 C-12.06816406 8.09261719 -12.15195312 7.17351563 -12.23828125 6.2265625 C-12.29886719 5.51628906 -12.35945313 4.80601563 -12.421875 4.07421875 C-12.751875 4.07421875 -13.081875 4.07421875 -13.421875 4.07421875 Z " fill="#2BA3A4" transform="translate(45.421875,9.92578125)"/>
<path d="M0 0 C0.763125 -0.01160156 1.52625 -0.02320313 2.3125 -0.03515625 C7.86907188 -0.00591113 7.86907188 -0.00591113 10.3984375 1.8984375 C10.72070312 2.38570312 11.04296875 2.87296875 11.375 3.375 C10.715 3.705 10.055 4.035 9.375 4.375 C9.375 3.715 9.375 3.055 9.375 2.375 C6.075 2.375 2.775 2.375 -0.625 2.375 C-0.625 6.665 -0.625 10.955 -0.625 15.375 C-0.955 15.375 -1.285 15.375 -1.625 15.375 C-1.955 12.735 -2.285 10.095 -2.625 7.375 C-5.265 11.995 -7.905 16.615 -10.625 21.375 C-9.18125 21.643125 -7.7375 21.91125 -6.25 22.1875 C-3.7890625 22.64453125 -3.7890625 22.64453125 -1.625 23.375 C0.51086678 26.57880017 0.60632175 27.39439967 0.5 31.0625 C0.48195313 31.87074219 0.46390625 32.67898437 0.4453125 33.51171875 C0.42210938 34.12660156 0.39890625 34.74148437 0.375 35.375 C-1.625 33.375 -1.625 33.375 -1.8203125 31.4296875 C-1.75520833 29.41145833 -1.69010417 27.39322917 -1.625 25.375 C-2.20507812 25.32601562 -2.78515625 25.27703125 -3.3828125 25.2265625 C-8.1034676 24.77475063 -12.11529785 23.87823405 -16.625 22.375 C-19.87544709 22.20701531 -19.87544709 22.20701531 -22.625 22.375 C-22.10693614 17.33911454 -20.5255849 13.9772624 -17.875 9.6875 C-17.19953125 8.56988281 -16.5240625 7.45226562 -15.828125 6.30078125 C-11.30945192 0.29991931 -7.06730942 -0.10854229 0 0 Z " fill="#257A7F" transform="translate(34.625,8.625)"/>
<path d="M0 0 C10.48067393 -0.41922696 10.48067393 -0.41922696 15 3 C16.80078125 5.33984375 16.80078125 5.33984375 18.3125 7.9375 C18.82425781 8.79214844 19.33601563 9.64679687 19.86328125 10.52734375 C21 13 21 13 21 17 C13.97126813 16.17309037 6.9923468 15.09255419 0 14 C0 9.38 0 4.76 0 0 Z " fill="#10C5AA" transform="translate(34,11)"/>
<path d="M0 0 C7.10701328 0.54339337 13.24292825 1.74764275 20 4 C20 8.29 20 12.58 20 17 C11.1817279 17.83416087 11.1817279 17.83416087 8.140625 15.6875 C6.56705765 13.87059749 5.26827774 12.04113448 4 10 C3.5875 9.36707031 3.175 8.73414063 2.75 8.08203125 C0.99369579 5.22193863 0 3.4017545 0 0 Z " fill="#13C1AA" transform="translate(13,30)"/>
<path d="M0 0 C-0.43142926 5.39286575 -1.52110606 8.80486318 -5 13 C-5.99 13 -6.98 13 -8 13 C-8.33 13.99 -8.66 14.98 -9 16 C-9.99 15.67 -10.98 15.34 -12 15 C-12 12.03 -12 9.06 -12 6 C-11.34 6 -10.68 6 -10 6 C-9.87625 5.195625 -9.7525 4.39125 -9.625 3.5625 C-9.41875 2.716875 -9.2125 1.87125 -9 1 C-6.04335481 -0.4783226 -3.25770263 -0.06032783 0 0 Z " fill="#2A98A4" transform="translate(32,11)"/>
<path d="M0 0 C6.94485303 -0.48452463 13.2990368 1.30712509 20 3 C20.33 2.34 20.66 1.68 21 1 C21.71484375 2.640625 21.71484375 2.640625 22 5 C20.56640625 7.796875 20.56640625 7.796875 18.5625 10.75 C17.57443359 12.22726563 17.57443359 12.22726563 16.56640625 13.734375 C16.04949219 14.48203125 15.53257813 15.2296875 15 16 C13.8299903 12.08263419 14.30415983 9.02040985 15 5 C13.35 4.67 11.7 4.34 10 4 C10 4.99 10 5.98 10 7 C9.34 7 8.68 7 8 7 C8.33 5.35 8.66 3.7 9 2 C6.03 1.67 3.06 1.34 0 1 C0 0.67 0 0.34 0 0 Z " fill="#2F7686" transform="translate(35,25)"/>
<path d="M0 0 C-0.33 1.32 -0.66 2.64 -1 4 C-1.66 4 -2.32 4 -3 4 C-3 4.99 -3 5.98 -3 7 C-3.99 7.495 -3.99 7.495 -5 8 C-6.13350534 10.01669827 -6.13350534 10.01669827 -7 12 C-7.66 11.67 -8.32 11.34 -9 11 C-9 7.7 -9 4.4 -9 1 C-6.04335481 -0.4783226 -3.25770263 -0.06032783 0 0 Z " fill="#23A2A6" transform="translate(32,11)"/>
<path d="M0 0 C0.99 0.66 1.98 1.32 3 2 C1.44191344 14.85421412 1.44191344 14.85421412 -3 19 C-3.99 18.67 -4.98 18.34 -6 18 C-5 16 -5 16 -2 15 C-1.06619039 10.46859347 -1.06619039 10.46859347 -2 6 C-2.99 6 -3.98 6 -5 6 C-5 5.34 -5 4.68 -5 4 C-4.34 4 -3.68 4 -3 4 C-3 3.01 -3 2.02 -3 1 C-2.01 0.67 -1.02 0.34 0 0 Z " fill="#3093A2" transform="translate(48,28)"/>
<path d="M0 0 C2.77141717 -0.08089542 5.54047819 -0.14044062 8.3125 -0.1875 C9.09818359 -0.21263672 9.88386719 -0.23777344 10.69335938 -0.26367188 C11.45068359 -0.27333984 12.20800781 -0.28300781 12.98828125 -0.29296875 C14.03302612 -0.31653442 14.03302612 -0.31653442 15.09887695 -0.34057617 C17.54489783 0.09761557 18.42702086 1.13437358 20 3 C19.01 3.495 19.01 3.495 18 4 C18 3.34 18 2.68 18 2 C14.7 2 11.4 2 8 2 C8 6.29 8 10.58 8 15 C7.67 15 7.34 15 7 15 C6.67 10.71 6.34 6.42 6 2 C4.02 2 2.04 2 0 2 C0 1.34 0 0.68 0 0 Z " fill="#125954" transform="translate(26,9)"/>
<path d="M0 0 C0.33 0.66 0.66 1.32 1 2 C1.99 2 2.98 2 4 2 C6 5 6 5 5.625 8.1875 C5.41875 9.115625 5.2125 10.04375 5 11 C2 10 2 10 0.8125 7.9375 C0.544375 7.298125 0.27625 6.65875 0 6 C-0.99 6.33 -1.98 6.66 -3 7 C-1.125 2.25 -1.125 2.25 0 0 Z " fill="#2997A4" transform="translate(42,32)"/>
<path d="M0 0 C0.99 0.33 1.98 0.66 3 1 C3.33333333 2.33333333 3.66666667 3.66666667 4 5 C4.99 5.33 5.98 5.66 7 6 C7 6.66 7 7.32 7 8 C4.36 7.67 1.72 7.34 -1 7 C-2 4 -2 4 -1.0625 1.8125 C-0.5365625 0.9153125 -0.5365625 0.9153125 0 0 Z " fill="#0AD5AE" transform="translate(48,20)"/>
<path d="M0 0 C1.32 0 2.64 0 4 0 C4.33 0.99 4.66 1.98 5 3 C4.34 3 3.68 3 3 3 C3.020625 4.0725 3.04125 5.145 3.0625 6.25 C3.0142016 9.14790424 2.86844115 11.28612141 2 14 C1.34 14 0.68 14 0 14 C0 9.38 0 4.76 0 0 Z " fill="#1CB39E" transform="translate(34,11)"/>
<path d="M0 0 C0.66 0 1.32 0 2 0 C2 1.65 2 3.3 2 5 C2.99 5.33 3.98 5.66 5 6 C5 6.66 5 7.32 5 8 C5.99 8.33 6.98 8.66 8 9 C8 10.65 8 12.3 8 14 C3.66965806 10.15080717 1.3439244 6.27710354 -1 1 C-0.67 0.67 -0.34 0.34 0 0 Z " fill="#16B997" transform="translate(14,31)"/>
<path d="M0 0 C6.67491831 -0.45510807 12.59374557 1.2327574 19 3 C19 3.33 19 3.66 19 4 C16.03 4 13.06 4 10 4 C10 4.99 10 5.98 10 7 C9.34 7 8.68 7 8 7 C8.33 5.35 8.66 3.7 9 2 C6.03 1.67 3.06 1.34 0 1 C0 0.67 0 0.34 0 0 Z " fill="#14706A" transform="translate(35,25)"/>
<path d="M0 0 C3.29078593 2.79716804 5.06305458 6.19528578 7 10 C6.67 10.66 6.34 11.32 6 12 C0.09375 6.375 0.09375 6.375 -0.1875 2.25 C-0.125625 1.5075 -0.06375 0.765 0 0 Z " fill="#107C66" transform="translate(48,14)"/>
<path d="M0 0 C0.66 0.33 1.32 0.66 2 1 C1.67 2.32 1.34 3.64 1 5 C0.34 5 -0.32 5 -1 5 C-1 5.66 -1 6.32 -1 7 C-1.99 7 -2.98 7 -4 7 C-4.33 7.66 -4.66 8.32 -5 9 C-4.67 7.35 -4.34 5.7 -4 4 C-3.34 4 -2.68 4 -2 4 C-2 3.34 -2 2.68 -2 2 C-1.34 2 -0.68 2 0 2 C0 1.34 0 0.68 0 0 Z " fill="#348B9E" transform="translate(17,22)"/>
<path d="M0 0 C0.33 0.66 0.66 1.32 1 2 C0.0390625 3.9453125 0.0390625 3.9453125 -1.375 6.125 C-1.83648438 6.84945313 -2.29796875 7.57390625 -2.7734375 8.3203125 C-3.17820312 8.87460937 -3.58296875 9.42890625 -4 10 C-4.33 10 -4.66 10 -5 10 C-5 8.35 -5 6.7 -5 5 C-4.01 4.67 -3.02 4.34 -2 4 C-2 3.01 -2 2.02 -2 1 C-1.34 0.67 -0.68 0.34 0 0 Z " fill="#1D5F5F" transform="translate(31,14)"/>
<path d="M0 0 C1.43088528 2.86177057 0.59991697 4.93375773 0 8 C-1.32 8 -2.64 8 -4 8 C-2.87548273 5.0280615 -1.77706209 2.66559313 0 0 Z " fill="#166A69" transform="translate(38,39)"/>
<path d="M0 0 C1.5 1.375 1.5 1.375 3 3 C3 3.66 3 4.32 3 5 C1.02 5.66 -0.96 6.32 -3 7 C-1.125 2.25 -1.125 2.25 0 0 Z " fill="#1F7374" transform="translate(42,32)"/>
</svg>
